<svg width="24" height="24" viewBox="0 0 24 24" fill="none" xmlns="http://www.w3.org/2000/svg">
<path fill-rule="evenodd" clip-rule="evenodd" d="M10.55 20.03L12 21.35L13.45 20.04L13.4895 20.0041C18.6174 15.3442 22 12.2703 22 8.5C22 5.42 19.58 3 16.5 3C15.4028 3 14.3334 3.32208 13.4198 3.88099C12.8845 4.20843 12.4027 4.61714 12 5.09C11.5973 4.61714 11.1155 4.20843 10.5802 3.88099C9.66658 3.32208 8.59721 3 7.5 3C4.42 3 2 5.42 2 8.5C2 12.2769 5.39442 15.3549 10.5373 20.0185L10.55 20.03ZM12.1071 18.5579C14.7217 16.1819 16.7293 14.3532 18.1077 12.6668C19.4635 11.0081 20 9.73306 20 8.5C20 6.52457 18.4754 5 16.5 5C15.3656 5 14.2455 5.53787 13.5227 6.38668L12 8.17481L10.4773 6.38668C9.75448 5.53787 8.63443 5 7.5 5C5.52457 5 4 6.52457 4 8.5C4 9.73303 4.53649 11.0079 5.89185 12.665C7.27019 14.3501 9.27824 16.1769 11.8935 18.5484L11.8964 18.551L12.0051 18.65L12.1049 18.5599L12.1071 18.5579Z" fill="#442C2E"/>
</svg>
